<svg width="32" height="32" viewBox="0 0 32 32" fill="none" xmlns="http://www.w3.org/2000/svg">
<path d="M4 16H10.6667C11.403 16 12 16.597 12 17.3333V25.3333C12 26.0697 11.403 26.6667 10.6667 26.6667H5.33333C4.59695 26.6667 4 26.0697 4 25.3333V16Z" fill="#5A5A5A"/>
<path d="M20 17.3333C20 16.597 20.597 16 21.3333 16H28V25.3333C28 26.0697 27.403 26.6667 26.6667 26.6667H21.3333C20.597 26.6667 20 26.0697 20 25.3333V17.3333Z" fill="#5A5A5A"/>
<path d="M4 16.6665C4 12.9535 5.26428 9.39252 7.51472 6.76701C9.76515 4.1415 12.8174 2.6665 16 2.6665C19.1826 2.6665 22.2348 4.1415 24.4853 6.76701C26.7357 9.39252 28 12.9535 28 16.6665L26.3686 16.6665C26.3686 13.4583 25.2762 10.3814 23.3317 8.11283C21.3872 5.84425 18.7499 4.56978 16 4.56978C13.2501 4.56978 10.6128 5.84425 8.66828 8.11283C6.72378 10.3814 5.63138 13.4583 5.63138 16.6665H4Z" fill="#5A5A5A"/>
</svg>
