<svg width="32" height="32" viewBox="0 0 32 32" fill="none" xmlns="http://www.w3.org/2000/svg">
<g clip-path="url(#clip0_32_531)">
<path d="M28.3626 19.7535H28.232C27.236 22.4855 25.1187 24.6615 22.4147 25.7309V19.7535L25.6733 16.8442L22.4147 13.9349V9.86286C25.2653 9.87086 27.5947 7.5922 27.6507 4.74286C27.6507 1.23753 24.3053 0.00153083 22.4147 0.00153083C21.9253 -0.0078025 21.436 0.0455308 20.96 0.161531V0.336198H21.7013C22.7693 0.148197 23.788 0.861531 23.976 1.92953C23.9867 1.9882 23.9946 2.04953 24 2.11086C23.956 3.16286 23.0666 3.97886 22.016 3.93353C21.9893 3.9322 21.9613 3.93086 21.9347 3.9282C18.676 3.9282 14.8373 1.28153 10.6627 1.28153C7.39599 1.10686 4.59732 3.58953 4.37865 6.8522C4.27732 8.89486 5.67732 10.7082 7.67999 11.1282V10.9682C7.06799 10.5749 6.72132 9.8762 6.77865 9.14953C6.87732 7.7962 8.05465 6.77753 9.40932 6.8762C9.42399 6.87886 9.43999 6.8802 9.45465 6.88153C12.96 6.88153 18.6173 9.79086 22.1226 9.79086H22.2533V13.9802L18.9947 16.8895L22.2533 19.7989V25.8642C20.9493 26.2935 19.5826 26.5055 18.2093 26.4895C15.9787 26.6015 13.7853 25.8815 12.0573 24.4682L17.9627 21.8215V9.93486L9.70132 13.5709C10.4907 11.2375 12.228 9.34686 14.4867 8.3642V8.23353C8.46532 9.5722 3.63599 13.8909 3.63599 19.8402C3.63599 26.7642 9.00265 32.0002 16.7267 32.0002C24.7413 32.0002 28.3626 26.1829 28.3626 20.2482V19.7535ZM11.8107 24.2482C9.99332 22.4322 9.02265 19.9349 9.13465 17.3682C9.11332 16.1949 9.27999 15.0269 9.62932 13.9069L12.364 12.6562V23.9575L11.8107 24.2482Z" fill="black"/>
</g>
<defs>
<clipPath id="clip0_32_531">
<rect width="32" height="32" fill="white"/>
</clipPath>
</defs>
</svg>
