<svg width="24" height="24" viewBox="0 0 24 24" fill="none" xmlns="http://www.w3.org/2000/svg">
<path d="M3.73201 17.8478C3.6659 17.86 3.59812 17.86 3.53201 17.8478C3.36765 17.7994 3.22876 17.6886 3.14504 17.5391C3.06132 17.3896 3.03941 17.2133 3.08401 17.0478C4.53201 11.0078 7.83601 7.82384 12.532 8.05584V5.51184C12.5404 5.37833 12.5822 5.24905 12.6534 5.13585C12.7247 5.02265 12.8232 4.92912 12.94 4.86384C13.0675 4.79716 13.2121 4.77065 13.3549 4.78779C13.4977 4.80492 13.632 4.86491 13.74 4.95984L19.98 10.2798C20.1299 10.4223 20.2188 10.6173 20.228 10.8238C20.2188 11.0304 20.1299 11.2254 19.98 11.3678L13.74 16.6478C13.6359 16.7319 13.511 16.786 13.3785 16.8043C13.246 16.8226 13.111 16.8045 12.988 16.7518C12.8632 16.6959 12.7574 16.6048 12.6836 16.4898C12.6097 16.3747 12.5709 16.2406 12.572 16.1038V13.3758C6.44401 12.7758 4.57201 17.2398 4.45201 17.4318C4.3973 17.5728 4.29612 17.6909 4.16519 17.7665C4.03427 17.8421 3.88146 17.8708 3.73201 17.8478ZM11.404 12.0078C12.0008 12.0094 12.5968 12.0518 13.188 12.1358C13.3531 12.1722 13.5023 12.26 13.6144 12.3864C13.7265 12.5129 13.7957 12.6716 13.812 12.8398V14.7918L18.5 10.7918L13.812 6.79184V8.71184C13.813 8.81295 13.7921 8.91308 13.7509 9.00541C13.7097 9.09775 13.649 9.18012 13.5731 9.24692C13.4972 9.31372 13.4078 9.36339 13.311 9.39253C13.2142 9.42168 13.1122 9.42963 13.012 9.41584C9.65201 9.03984 7.10801 10.5998 5.52401 13.9438C7.19963 12.6351 9.27863 11.9506 11.404 12.0078Z" fill="#121212"/>
</svg>
