<svg width="40" height="40" viewBox="0 0 40 40" fill="none" xmlns="http://www.w3.org/2000/svg">
<rect x="0.5" y="0.5" width="39" height="39" rx="19.5" fill="white"/>
<rect x="0.5" y="0.5" width="39" height="39" rx="19.5" stroke="#121212"/>
<path d="M11.732 25.8478C11.6659 25.86 11.5981 25.86 11.532 25.8478C11.3677 25.7994 11.2288 25.6886 11.145 25.5391C11.0613 25.3896 11.0394 25.2133 11.084 25.0478C12.532 19.0078 15.836 15.8238 20.532 16.0558V13.5118C20.5404 13.3783 20.5822 13.2491 20.6534 13.1359C20.7247 13.0226 20.8232 12.9291 20.94 12.8638C21.0675 12.7972 21.2121 12.7707 21.3549 12.7878C21.4977 12.8049 21.632 12.8649 21.74 12.9598L27.98 18.2798C28.1299 18.4223 28.2188 18.6173 28.228 18.8238C28.2188 19.0304 28.1299 19.2254 27.98 19.3678L21.74 24.6478C21.6359 24.7319 21.511 24.786 21.3785 24.8043C21.246 24.8226 21.111 24.8045 20.988 24.7518C20.8632 24.6959 20.7574 24.6048 20.6836 24.4898C20.6097 24.3747 20.5709 24.2406 20.572 24.1038V21.3758C14.444 20.7758 12.572 25.2398 12.452 25.4318C12.3973 25.5728 12.2961 25.6909 12.1652 25.7665C12.0343 25.8421 11.8815 25.8708 11.732 25.8478ZM19.404 20.0078C20.0008 20.0094 20.5968 20.0518 21.188 20.1358C21.3531 20.1722 21.5023 20.26 21.6144 20.3864C21.7265 20.5129 21.7957 20.6716 21.812 20.8398V22.7918L26.5 18.7918L21.812 14.7918V16.7118C21.813 16.813 21.7921 16.9131 21.7509 17.0054C21.7097 17.0977 21.649 17.1801 21.5731 17.2469C21.4972 17.3137 21.4078 17.3634 21.311 17.3925C21.2142 17.4217 21.1122 17.4296 21.012 17.4158C17.652 17.0398 15.108 18.5998 13.524 21.9438C15.1996 20.6351 17.2786 19.9506 19.404 20.0078Z" fill="#121212"/>
</svg>
