<svg width="16" height="16" viewBox="0 0 16 16" fill="none" xmlns="http://www.w3.org/2000/svg">
<path d="M14.9182 6.21687C14.871 6.08764 14.7607 5.99072 14.6188 5.99072H9.79666L8.29958 1.29011C8.25231 1.16088 8.142 1.06396 8.00017 1.06396C7.85834 1.06396 7.74803 1.16088 7.70075 1.29011L6.20368 5.99072H1.38151C1.23968 5.99072 1.12937 6.08764 1.0821 6.21687C1.03482 6.34609 1.0821 6.49147 1.19241 6.57224L5.08481 9.46368L3.58773 14.1643C3.54046 14.2935 3.58773 14.4389 3.69804 14.5197C3.76108 14.5681 3.82411 14.5843 3.88715 14.5843C3.95018 14.5843 4.01322 14.5681 4.07625 14.5197L7.98441 11.6121L11.8926 14.5358C12.0029 14.6166 12.1447 14.6166 12.2708 14.5358C12.3811 14.455 12.4284 14.3097 12.3811 14.1804L10.884 9.47983L14.7922 6.58839C14.9182 6.49147 14.9655 6.34609 14.9182 6.21687Z" fill="#121212"/>
</svg>
